<?xml version="1.0" standalone="no"?>
<!DOCTYPE svg PUBLIC "-//W3C//DTD SVG 20010904//EN"
 "http://www.w3.org/TR/2001/REC-SVG-20010904/DTD/svg10.dtd">
<svg version="1.0" xmlns="http://www.w3.org/2000/svg"
 width="1369.000000pt" height="354.000000pt" viewBox="0 0 1369.000000 354.000000"
 preserveAspectRatio="xMidYMid meet">
<metadata>
Created by potrace 1.16, written by Peter Selinger 2001-2019
</metadata>
<g transform="translate(0.000000,354.000000) scale(0.100000,-0.100000)"
fill="#000000" stroke="none">
<path d="M9205 3336 c-81 -23 -101 -33 -140 -68 -52 -45 -75 -99 -75 -179 0
-146 79 -212 339 -280 150 -39 197 -105 123 -173 -30 -26 -112 -31 -158 -10
-37 18 -74 65 -74 96 0 22 -35 41 -63 34 -12 -2 -56 -6 -97 -7 -109 -3 -112
-5 -104 -48 18 -103 86 -191 179 -232 41 -18 74 -23 180 -27 79 -3 152 0 186
7 83 17 156 66 202 132 33 48 40 67 44 123 4 39 1 84 -7 110 -16 58 -70 120
-129 150 -53 27 -190 71 -270 86 -74 14 -101 33 -101 70 0 37 35 62 88 64 60
1 99 -21 123 -70 l21 -44 71 5 c40 3 96 8 125 11 l54 6 -6 34 c-18 94 -74 160
-165 195 -73 28 -270 36 -346 15z"/>
<path d="M8040 2893 l0 -443 135 0 135 0 0 180 0 180 25 0 c39 0 81 -26 103
-62 11 -18 41 -73 67 -123 26 -49 59 -109 72 -132 l25 -43 149 0 c95 0 149 4
149 10 0 14 -62 136 -117 232 -43 74 -103 138 -130 138 -23 0 -14 18 13 24 84
21 151 97 166 188 19 109 -19 201 -105 255 -46 29 -67 30 -469 36 l-218 3 0
-443z m489 240 c31 -24 39 -74 17 -108 -20 -30 -72 -45 -158 -45 l-68 0 0 91
0 92 91 -5 c69 -4 97 -10 118 -25z"/>
<path d="M12300 2893 l0 -443 203 0 c249 0 354 12 419 47 71 39 123 97 155
172 26 62 27 75 28 211 0 116 -4 157 -19 203 -24 73 -80 153 -131 188 -75 51
-118 58 -398 61 l-257 3 0 -442z m451 216 c62 -31 83 -86 83 -219 0 -85 -4
-114 -21 -152 -30 -66 -57 -81 -156 -82 l-82 -1 -3 238 -2 237 70 0 c52 0 82
-6 111 -21z"/>
<path d="M213 3228 c28 -439 283 -835 692 -1076 77 -45 253 -115 334 -133 28
-6 51 -15 51 -20 0 -5 -35 -10 -77 -11 -43 0 -112 -2 -153 -2 -41 -1 -249 -3
-462 -4 l-388 -2 0 -265 0 -265 418 -2 c229 -2 440 -3 467 -4 28 -1 83 -2 123
-3 93 -1 91 -17 -3 -41 -188 -48 -358 -138 -527 -279 -181 -149 -332 -371
-410 -601 -31 -91 -68 -295 -68 -372 l0 -48 269 0 269 0 6 31 c3 17 6 43 6 58
0 22 21 120 34 156 2 6 4 13 4 18 1 4 22 47 46 95 83 159 191 269 346 351 43
22 83 41 89 41 8 0 11 -111 11 -375 l0 -375 270 0 270 0 1 248 c0 136 0 304
-1 375 -1 80 3 127 9 127 38 0 170 -76 260 -149 136 -112 261 -356 272 -532 1
-24 5 -50 7 -56 3 -10 66 -13 268 -13 l264 0 0 83 c0 320 -196 712 -469 940
-173 143 -385 250 -578 292 -60 12 -34 25 55 27 48 1 112 2 142 2 30 1 234 2
453 4 l397 2 0 265 0 265 -387 2 c-214 1 -422 3 -463 4 -41 1 -110 2 -152 3
-43 0 -78 5 -78 9 0 5 39 19 88 32 234 61 437 184 620 375 231 239 351 514
375 858 l5 67 -272 -2 -271 -3 -8 -69 c-22 -200 -100 -359 -243 -497 -76 -72
-132 -112 -211 -153 -86 -43 -85 -44 -83 92 1 64 1 233 1 375 l-1 257 -270 0
-270 0 0 -380 0 -380 -54 24 c-265 117 -449 375 -482 674 l-7 62 -270 0 -270
0 6 -102z"/>
<path d="M3642 3028 c4 -277 6 -309 26 -368 36 -109 126 -185 249 -210 34 -7
109 -11 187 -8 157 5 203 21 284 101 92 91 96 109 100 475 l3 312 -135 0 -136
0 -1 -192 c-1 -360 -3 -390 -22 -425 -48 -89 -209 -90 -260 -3 -19 32 -25 124
-26 423 l-1 197 -136 0 -136 0 4 -302z"/>
<path d="M4670 2890 l0 -440 130 0 130 0 2 238 3 237 61 -90 c33 -49 105 -155
159 -235 54 -80 101 -147 105 -150 5 -3 65 -4 134 -2 l126 3 0 440 0 439 -130
0 -130 0 0 -27 c-1 -16 0 -121 0 -235 0 -115 -1 -208 -4 -208 -2 0 -30 39 -63
87 -32 48 -62 93 -68 99 -5 6 -50 72 -100 147 l-90 137 -132 0 -133 0 0 -440z"/>
<path d="M5710 2890 l0 -440 135 0 135 0 0 440 0 440 -135 0 -135 0 0 -440z"/>
<path d="M6100 3323 c0 -8 14 -46 65 -178 15 -38 34 -90 42 -115 8 -25 23 -63
33 -85 10 -22 38 -96 64 -165 25 -69 63 -170 85 -225 l39 -100 149 -3 150 -3
28 78 c15 43 42 116 60 163 18 47 52 137 75 200 115 311 160 435 160 437 0 2
-62 3 -139 3 l-138 0 -47 -152 c-26 -84 -68 -222 -93 -305 -26 -84 -49 -153
-53 -153 -3 0 -16 33 -28 73 -26 82 -79 250 -132 417 l-36 115 -142 3 c-78 1
-142 -1 -142 -5z"/>
<path d="M7140 2890 l0 -440 375 0 375 0 0 100 0 100 -240 0 -240 0 0 90 0 90
215 0 215 0 0 85 0 85 -27 2 c-16 1 -39 3 -53 4 -14 1 -96 2 -182 3 l-158 1 0
65 0 65 153 1 c83 1 172 3 197 4 25 1 57 3 73 4 l27 1 0 90 0 90 -365 0 -365
0 0 -440z"/>
<path d="M9900 2890 l0 -440 135 0 135 0 0 440 0 440 -135 0 -135 0 0 -440z"/>
<path d="M10380 2891 l0 -441 218 0 c317 0 392 17 481 110 89 92 126 241 104
419 -20 160 -86 264 -203 320 -55 26 -57 26 -327 29 l-273 3 0 -440z m427 228
c80 -30 108 -102 101 -265 -6 -157 -37 -191 -180 -201 l-78 -6 0 242 0 241 64
0 c36 0 77 -5 93 -11z"/>
<path d="M11565 3308 c-4 -13 -22 -61 -40 -108 -32 -82 -204 -538 -252 -668
-13 -35 -23 -67 -23 -73 0 -6 52 -9 138 -7 l137 3 23 73 23 73 154 -2 153 -1
11 -46 c7 -26 17 -59 23 -74 l10 -28 139 0 c104 0 139 3 139 12 0 12 -54 159
-170 463 -21 55 -57 152 -80 215 -23 63 -48 131 -55 150 l-13 35 -155 3 c-154
2 -156 2 -162 -20z m209 -375 l43 -143 -93 0 c-52 0 -94 3 -94 6 0 7 76 255
87 284 7 18 3 27 57 -147z"/>
<path d="M5690 2151 c-142 -38 -238 -135 -274 -276 -31 -117 -16 -318 31 -410
29 -55 94 -124 146 -154 74 -42 143 -54 282 -49 104 3 128 7 176 30 32 14 76
45 99 68 44 44 104 157 98 186 -2 12 -31 26 -92 45 -147 46 -132 48 -164 -24
-33 -72 -63 -96 -131 -104 -36 -4 -59 0 -95 15 -64 29 -88 82 -94 208 -6 119
14 189 63 233 42 37 70 45 134 39 67 -7 100 -35 137 -116 1 -2 44 6 95 18 52
12 105 23 118 26 20 4 22 9 17 35 -6 34 -63 123 -98 156 -88 82 -293 116 -448
74z"/>
<path d="M7700 2154 c-89 -24 -156 -61 -205 -116 -86 -95 -109 -174 -103 -355
3 -120 5 -132 36 -195 42 -87 106 -151 190 -191 67 -32 68 -32 227 -32 153 0
163 1 217 27 115 54 201 165 229 296 14 68 6 251 -13 302 -23 62 -75 146 -108
173 -42 36 -144 83 -208 96 -72 15 -195 13 -262 -5z m236 -219 c64 -38 86 -91
87 -213 1 -144 -24 -206 -97 -242 -52 -25 -108 -25 -162 -1 -73 33 -104 101
-104 232 0 169 58 247 184 248 35 1 61 -6 92 -24z"/>
<path d="M9544 2152 c-121 -36 -207 -104 -256 -204 -69 -137 -64 -355 9 -491
36 -66 120 -140 191 -169 51 -20 73 -23 217 -23 152 1 163 2 215 27 113 54
194 156 219 276 16 76 14 238 -4 306 -34 131 -129 229 -261 272 -78 24 -256
28 -330 6z m258 -224 c59 -45 73 -87 73 -213 0 -97 -3 -116 -25 -160 -54 -108
-198 -128 -282 -39 -62 66 -75 256 -25 354 33 65 84 92 163 88 48 -3 69 -10
96 -30z"/>
<path d="M10601 2160 c-208 -44 -331 -211 -331 -450 0 -153 44 -265 137 -350
79 -73 140 -93 297 -98 183 -6 272 16 414 101 l52 31 0 188 0 188 -210 0 -210
0 0 -85 0 -85 90 0 90 0 0 -49 0 -49 -69 -27 c-131 -52 -242 -20 -292 82 -20
41 -24 64 -24 148 0 110 13 159 52 206 39 46 70 58 152 56 73 -2 74 -2 111
-44 28 -32 45 -43 66 -42 38 0 212 34 221 42 3 4 0 26 -7 49 -20 63 -110 148
-180 172 -64 21 -288 31 -359 16z"/>
<path d="M12075 2150 c-85 -26 -123 -47 -176 -100 -85 -85 -128 -232 -115
-387 17 -182 95 -308 231 -369 51 -23 77 -28 179 -32 126 -5 203 6 267 39 61
30 125 104 154 177 l27 66 -22 18 c-12 10 -28 18 -36 18 -7 0 -48 11 -91 25
-42 14 -82 24 -89 21 -6 -2 -15 -21 -18 -40 -9 -47 -57 -102 -103 -117 -46
-15 -118 -6 -152 18 -49 36 -66 86 -69 213 -3 111 -2 117 26 169 35 66 76 91
147 91 59 0 106 -25 135 -72 11 -18 21 -36 22 -40 3 -6 51 1 143 22 22 5 52
11 68 15 33 7 33 11 1 79 -49 104 -141 173 -259 195 -86 16 -201 12 -270 -9z"/>
<path d="M3580 2045 l0 -105 140 0 140 0 0 -335 0 -335 135 0 135 0 0 335 0
335 140 0 140 0 0 105 0 105 -415 0 -415 0 0 -105z"/>
<path d="M4540 1710 l0 -440 370 0 370 0 0 100 0 100 -238 0 -239 0 5 83 c2
45 5 83 6 84 1 1 78 2 171 3 94 1 187 4 208 7 l37 6 0 83 0 84 -27 1 c-16 1
-48 3 -73 4 -25 2 -107 3 -182 4 l-138 1 0 65 0 65 153 1 c83 1 172 3 197 4
25 1 57 3 73 4 l27 1 0 90 0 90 -360 0 -360 0 0 -440z"/>
<path d="M6390 1710 l0 -440 125 0 125 0 1 148 c1 163 7 313 13 319 2 2 22
-24 44 -59 23 -35 75 -112 117 -173 42 -60 94 -138 117 -172 l41 -63 129 0
128 0 0 440 0 440 -125 0 -125 0 0 -32 c-1 -18 0 -124 0 -235 0 -112 -3 -203
-7 -203 -4 1 -78 105 -164 233 l-156 232 -131 3 -132 3 0 -441z"/>
<path d="M8450 1710 l0 -440 344 0 343 0 7 38 c3 20 6 67 6 105 l0 67 -215 0
-215 0 0 335 0 335 -135 0 -135 0 0 -440z"/>
<path d="M11350 1710 l0 -440 130 0 130 0 0 440 0 440 -130 0 -130 0 0 -440z"/>
<path d="M12912 1878 c-57 -150 -114 -302 -127 -338 -76 -204 -88 -237 -92
-252 -5 -17 6 -18 135 -18 l139 0 18 63 c9 34 22 68 28 75 7 9 48 12 158 11
l147 -1 12 -47 c7 -25 17 -58 22 -73 l10 -28 139 0 c88 0 139 4 139 10 0 6 -9
36 -21 68 -11 31 -24 68 -29 82 -5 14 -67 180 -138 370 l-130 345 -153 3 -154
2 -103 -272z m312 -154 l34 -114 -94 0 c-52 0 -94 1 -94 3 0 2 6 23 14 48 8
24 29 91 47 149 l32 105 13 -39 c8 -21 29 -90 48 -152z"/>
<path d="M5955 984 c-153 -32 -253 -101 -309 -212 -22 -42 -46 -168 -46 -237
0 -82 27 -203 56 -253 37 -62 99 -128 148 -157 59 -34 147 -48 282 -44 106 4
125 7 176 32 32 16 75 46 95 67 43 43 93 136 96 176 2 28 -13 34 -209 90 -19
5 -24 -1 -38 -43 -28 -82 -79 -123 -155 -123 -76 0 -127 34 -157 105 -25 60
-22 229 4 286 27 57 40 72 79 92 78 41 177 10 218 -66 22 -42 12 -41 159 -7
43 11 83 23 88 28 14 14 -39 117 -84 162 -53 52 -127 87 -213 100 -70 10 -153
11 -190 4z"/>
<path d="M7400 983 c-92 -15 -198 -69 -250 -125 -121 -135 -145 -387 -54 -573
36 -73 116 -147 192 -176 85 -33 312 -40 393 -11 208 73 290 232 268 518 -10
133 -79 248 -184 310 -84 49 -255 76 -365 57z m173 -217 c42 -17 83 -66 97
-114 12 -46 13 -183 0 -236 -17 -76 -73 -126 -148 -134 -65 -6 -114 11 -151
53 -39 45 -51 91 -51 195 0 102 12 149 47 191 48 56 135 75 206 45z"/>
<path d="M3640 530 l0 -440 130 0 130 0 1 193 c0 105 0 212 -1 237 l-1 45 25
-30 c14 -16 25 -35 26 -42 0 -6 4 -13 9 -15 5 -1 28 -33 52 -69 24 -36 82
-123 129 -192 l85 -127 128 0 127 0 0 440 0 440 -125 0 -125 0 0 -27 c-1 -16
0 -121 0 -235 0 -115 -1 -208 -4 -208 -2 0 -18 19 -34 43 -15 23 -68 101 -117
172 -48 72 -108 158 -132 193 l-45 62 -129 0 -129 0 0 -440z"/>
<path d="M4886 903 c-14 -38 -71 -189 -127 -338 -56 -148 -116 -310 -135 -360
-19 -49 -34 -96 -34 -103 0 -10 31 -12 137 -10 l137 3 21 70 22 70 154 0 154
0 16 -62 c10 -34 20 -67 24 -72 4 -7 59 -11 147 -11 129 0 140 1 135 18 -7 25
-69 192 -203 550 l-117 312 -153 0 -152 0 -26 -67z m219 -310 c22 -75 41 -143
43 -150 3 -10 -18 -13 -87 -13 -50 0 -91 4 -91 9 0 5 18 67 40 137 22 71 40
134 40 141 0 7 3 13 8 13 4 0 25 -62 47 -137z"/>
<path d="M6610 530 l0 -440 135 0 135 0 0 440 0 440 -135 0 -135 0 0 -440z"/>
<path d="M8110 530 l0 -440 125 0 125 0 1 33 c0 17 0 123 -1 235 -1 111 3 202
7 202 4 0 39 -46 76 -103 37 -56 107 -160 155 -232 l88 -130 132 -3 132 -3 0
441 0 440 -125 0 -125 0 0 -122 c-1 -120 -10 -340 -15 -346 -1 -1 -22 28 -47
65 -44 68 -188 280 -244 360 l-29 42 -127 1 -128 0 0 -440z"/>
<path d="M9242 618 c-160 -425 -192 -511 -192 -520 0 -5 63 -8 139 -8 l139 0
17 65 c10 36 23 69 29 73 6 3 77 7 158 8 l146 2 11 -46 c7 -26 17 -59 23 -75
l10 -27 139 0 c77 0 139 3 139 8 0 11 -16 61 -43 132 -32 85 -223 598 -251
675 l-22 60 -154 3 -155 2 -133 -352z m351 -105 l25 -83 -94 0 c-52 0 -94 1
-94 3 0 2 6 23 14 48 8 24 29 91 47 149 l32 105 23 -70 c12 -38 33 -107 47
-152z"/>
<path d="M10100 530 l0 -440 345 0 345 0 0 105 0 105 -210 0 -210 0 0 335 0
335 -135 0 -135 0 0 -440z"/>
</g>
</svg>
