<?xml version="1.0" encoding="UTF-8"?>
<!DOCTYPE svg PUBLIC "-//W3C//DTD SVG 1.1//EN" "http://www.w3.org/Graphics/SVG/1.1/DTD/svg11.dtd">
<svg xmlns="http://www.w3.org/2000/svg" version="1.1" width="604px" height="95px" style="shape-rendering:geometricPrecision; text-rendering:geometricPrecision; image-rendering:optimizeQuality; fill-rule:evenodd; clip-rule:evenodd" xmlns:xlink="http://www.w3.org/1999/xlink">
<g><path style="opacity:0.973" fill="#272b33" d="M 37.5,-0.5 C 44.5,-0.5 51.5,-0.5 58.5,-0.5C 88.1535,9.7932 99.9868,30.4599 94,61.5C 88.0711,78.9313 76.2378,89.9313 58.5,94.5C 51.5,94.5 44.5,94.5 37.5,94.5C 7.89465,84.3143 -3.93868,63.6476 2,32.5C 7.95431,15.0415 19.7876,4.04151 37.5,-0.5 Z"/></g>
<g><path style="opacity:0.775" fill="#262b32" d="M 192.5,10.5 C 193.5,10.5 194.5,10.5 195.5,10.5C 195.817,13.5719 195.484,16.5719 194.5,19.5C 189.259,21.7046 184.092,24.038 179,26.5C 178.333,23.8333 178.333,21.1667 179,18.5C 183.811,16.1849 188.311,13.5183 192.5,10.5 Z"/></g>
<g><path style="opacity:0.836" fill="#262b32" d="M 262.5,12.5 C 271.244,12.4126 273.577,16.246 269.5,24C 261.674,26.5103 258.507,23.677 260,15.5C 260.698,14.3094 261.531,13.3094 262.5,12.5 Z"/></g>
<g><path style="opacity:0.907" fill="#262b32" d="M 380.5,12.5 C 382.5,12.5 384.5,12.5 386.5,12.5C 386.5,15.5 386.5,18.5 386.5,21.5C 383.035,21.3512 381.035,23.0179 380.5,26.5C 382.396,27.4656 384.396,27.7989 386.5,27.5C 386.5,30.5 386.5,33.5 386.5,36.5C 384.5,36.5 382.5,36.5 380.5,36.5C 380.5,46.5 380.5,56.5 380.5,66.5C 377.167,66.5 373.833,66.5 370.5,66.5C 370.5,56.5 370.5,46.5 370.5,36.5C 369.167,36.5 367.833,36.5 366.5,36.5C 366.5,33.5 366.5,30.5 366.5,27.5C 367.833,27.5 369.167,27.5 370.5,27.5C 369.641,19.5179 372.975,14.5179 380.5,12.5 Z"/></g>
<g><path style="opacity:0.833" fill="#262b32" d="M 481.5,12.5 C 490.351,12.3683 492.684,16.2017 488.5,24C 482.811,26.3848 479.478,24.5514 478.5,18.5C 478.628,16.0452 479.628,14.0452 481.5,12.5 Z"/></g>
<g><path style="opacity:0.817" fill="#262b32" d="M 521.5,12.5 C 528.276,11.7764 531.11,14.7764 530,21.5C 524.307,27.217 520.141,26.217 517.5,18.5C 517.866,15.7441 519.2,13.7441 521.5,12.5 Z"/></g>
<g><path style="opacity:0.91" fill="#262b32" d="M 240.5,15.5 C 243.833,15.5 247.167,15.5 250.5,15.5C 250.5,32.5 250.5,49.5 250.5,66.5C 247.167,66.5 243.833,66.5 240.5,66.5C 240.66,64.8008 240.494,63.1341 240,61.5C 238.482,63.348 236.649,64.848 234.5,66C 219.773,68.2811 211.773,61.9478 210.5,47C 211.745,32.0848 219.745,25.7515 234.5,28C 236.587,28.7922 238.421,29.9588 240,31.5C 240.499,26.1771 240.666,20.8437 240.5,15.5 Z M 228.5,36.5 C 235.996,36.0728 239.996,39.5728 240.5,47C 239.35,55.5713 234.683,58.5713 226.5,56C 219.524,48.7131 220.191,42.2131 228.5,36.5 Z"/></g>
<g><path style="opacity:0.939" fill="#262b32" d="M 499.5,15.5 C 502.833,15.5 506.167,15.5 509.5,15.5C 509.5,32.5 509.5,49.5 509.5,66.5C 506.167,66.5 502.833,66.5 499.5,66.5C 499.5,49.5 499.5,32.5 499.5,15.5 Z"/></g>
<g><path style="opacity:0.869" fill="#262b32" d="M 539.5,18.5 C 543.167,18.5 546.833,18.5 550.5,18.5C 550.5,21.5 550.5,24.5 550.5,27.5C 553.167,27.5 555.833,27.5 558.5,27.5C 558.5,30.5 558.5,33.5 558.5,36.5C 555.833,36.5 553.167,36.5 550.5,36.5C 550.17,43.1998 550.503,49.8665 551.5,56.5C 553.747,57.3742 556.08,57.7076 558.5,57.5C 558.5,60.5 558.5,63.5 558.5,66.5C 553.752,66.7252 549.085,66.2252 544.5,65C 543.333,63.8333 542.167,62.6667 541,61.5C 539.562,53.2767 539.062,44.9433 539.5,36.5C 538.167,36.5 536.833,36.5 535.5,36.5C 535.5,33.5 535.5,30.5 535.5,27.5C 536.833,27.5 538.167,27.5 539.5,27.5C 539.5,24.5 539.5,21.5 539.5,18.5 Z"/></g>
<g><path style="opacity:0.872" fill="#262b32" d="M 139.5,27.5 C 147.779,25.9986 154.946,27.9986 161,33.5C 162.411,35.6504 163.245,37.9837 163.5,40.5C 159.818,40.6653 156.152,40.4986 152.5,40C 147.848,35.234 143.348,35.4007 139,40.5C 136.29,46.8852 137.456,52.3852 142.5,57C 146.73,58.2462 150.064,57.0796 152.5,53.5C 156.107,52.5108 159.774,52.1774 163.5,52.5C 162.863,59.917 158.863,64.417 151.5,66C 132.085,67.5799 124.251,58.7466 128,39.5C 130.019,33.6498 133.852,29.6498 139.5,27.5 Z"/></g>
<g><path style="opacity:0.887" fill="#262b32" d="M 180.5,27.5 C 196.144,24.9946 205.144,31.4946 207.5,47C 205.157,62.6646 196.157,68.9979 180.5,66C 168.704,60.299 164.87,51.1324 169,38.5C 171.412,33.2523 175.246,29.5857 180.5,27.5 Z M 183.5,36.5 C 193.404,35.9519 197.571,40.6185 196,50.5C 194.143,56.1784 190.309,58.345 184.5,57C 178.891,53.7231 177.058,48.8897 179,42.5C 180.332,40.34 181.832,38.34 183.5,36.5 Z"/></g>
<g><path style="opacity:0.924" fill="#262b32" d="M 260.5,27.5 C 263.833,27.5 267.167,27.5 270.5,27.5C 270.5,40.5 270.5,53.5 270.5,66.5C 267.167,66.5 263.833,66.5 260.5,66.5C 260.5,53.5 260.5,40.5 260.5,27.5 Z"/></g>
<g><path style="opacity:0.882" fill="#262b32" d="M 289.5,27.5 C 293.182,27.3347 296.848,27.5014 300.5,28C 302.587,28.7922 304.421,29.9588 306,31.5C 306.49,30.2068 306.657,28.8734 306.5,27.5C 310.167,27.5 313.833,27.5 317.5,27.5C 317.918,42.8829 317.418,58.2162 316,73.5C 312.673,81.4983 306.673,85.165 298,84.5C 287.866,85.5213 281.366,81.188 278.5,71.5C 282.122,70.3414 285.789,70.1747 289.5,71C 295.702,77.3241 301.202,76.8241 306,69.5C 306.667,67.1667 306.667,64.8333 306,62.5C 298.691,67.6613 291.191,67.828 283.5,63C 277.842,56.1697 276.009,48.3364 278,39.5C 280.045,33.6244 283.878,29.6244 289.5,27.5 Z M 294.5,36.5 C 301.996,36.0728 305.996,39.5728 306.5,47C 305.35,55.5713 300.683,58.5713 292.5,56C 285.453,48.6939 286.119,42.1939 294.5,36.5 Z"/></g>
<g><path style="opacity:0.883" fill="#262b32" d="M 337.5,27.5 C 357.458,25.9541 365.625,34.9541 362,54.5C 356.044,65.8262 346.877,69.3262 334.5,65C 327.168,61.3166 323.501,55.3166 323.5,47C 323.918,37.2937 328.585,30.7937 337.5,27.5 Z M 340.5,36.5 C 351.407,37.2848 354.907,42.9515 351,53.5C 344.863,59.255 339.53,58.5883 335,51.5C 333.087,44.9698 334.92,39.9698 340.5,36.5 Z"/></g>
<g><path style="opacity:0.892" fill="#262b32" d="M 401.5,27.5 C 405.514,27.3345 409.514,27.5012 413.5,28C 415.587,28.7922 417.421,29.9588 419,31.5C 419.49,30.2068 419.657,28.8734 419.5,27.5C 422.833,27.5 426.167,27.5 429.5,27.5C 429.5,40.5 429.5,53.5 429.5,66.5C 426.167,66.5 422.833,66.5 419.5,66.5C 419.66,64.8008 419.494,63.1341 419,61.5C 412.527,67.1659 405.361,67.9993 397.5,64C 388.923,55.2956 387.423,45.4623 393,34.5C 395.441,31.5464 398.275,29.2131 401.5,27.5 Z M 407.5,36.5 C 417.624,37.4608 421.124,42.7941 418,52.5C 413.657,58.236 408.657,58.9027 403,54.5C 398.673,46.8652 400.173,40.8652 407.5,36.5 Z"/></g>
<g><path style="opacity:0.875" fill="#262b32" d="M 448.5,27.5 C 460.426,24.9513 468.759,29.1179 473.5,40C 469.5,40.6667 465.5,40.6667 461.5,40C 453.516,34.3119 448.516,36.4786 446.5,46.5C 446.714,54.5572 450.714,58.0572 458.5,57C 462.579,52.6436 467.579,51.477 473.5,53.5C 469.35,64.7348 461.35,68.9014 449.5,66C 440.494,62.9755 436.161,56.6422 436.5,47C 436.279,37.7543 440.279,31.2543 448.5,27.5 Z"/></g>
<g><path style="opacity:0.919" fill="#262b32" d="M 479.5,27.5 C 482.833,27.5 486.167,27.5 489.5,27.5C 489.5,40.5 489.5,53.5 489.5,66.5C 486.167,66.5 482.833,66.5 479.5,66.5C 479.5,53.5 479.5,40.5 479.5,27.5 Z"/></g>
<g><path style="opacity:0.835" fill="#262b32" d="M 518.5,27.5 C 522.167,27.5 525.833,27.5 529.5,27.5C 529.5,40.5 529.5,53.5 529.5,66.5C 525.833,66.5 522.167,66.5 518.5,66.5C 518.5,53.5 518.5,40.5 518.5,27.5 Z"/></g>
<g><path style="opacity:0.89" fill="#262b32" d="M 575.5,27.5 C 595.167,25.9992 603.667,34.9992 601,54.5C 595.667,65.0654 587.167,68.8987 575.5,66C 563.704,60.299 559.87,51.1324 564,38.5C 566.412,33.2523 570.246,29.5857 575.5,27.5 Z M 578.5,36.5 C 587.92,35.7532 592.086,40.0866 591,49.5C 589.697,55.9007 585.863,58.4007 579.5,57C 577.376,55.8783 575.543,54.3783 574,52.5C 572.208,46.0297 573.708,40.6964 578.5,36.5 Z"/></g>
<g><path style="opacity:1" fill="#f3f3f4" d="M 27.5,27.5 C 41.1707,27.3334 54.8374,27.5001 68.5,28C 72.5,31 72.5,34 68.5,37C 54.8333,37.6667 41.1667,37.6667 27.5,37C 23.5808,33.8397 23.5808,30.673 27.5,27.5 Z"/></g>
<g><path style="opacity:1" fill="#f9f9fa" d="M 26.5,42.5 C 33.5079,42.3337 40.5079,42.5004 47.5,43C 50.1667,45.6667 50.1667,48.3333 47.5,51C 40.5,51.6667 33.5,51.6667 26.5,51C 23.8987,48.1705 23.8987,45.3371 26.5,42.5 Z"/></g>
<g><path style="opacity:1" fill="#53b399" d="M 55.5,42.5 C 60.1785,42.3342 64.8452,42.5008 69.5,43C 72.1667,45.6667 72.1667,48.3333 69.5,51C 64.8333,51.6667 60.1667,51.6667 55.5,51C 52.9387,48.1767 52.9387,45.3433 55.5,42.5 Z"/></g>
<g><path style="opacity:1" fill="#f2f2f2" d="M 27.5,56.5 C 31.6034,55.7691 35.1034,56.7691 38,59.5C 38.9132,62.352 38.0799,64.5186 35.5,66C 32.8333,66.6667 30.1667,66.6667 27.5,66C 23.5808,62.8397 23.5808,59.673 27.5,56.5 Z"/></g>
<g><path style="opacity:1" fill="#52af96" d="M 45.5,56.5 C 53.1739,56.3336 60.8406,56.5003 68.5,57C 72.5,60 72.5,63 68.5,66C 60.8333,66.6667 53.1667,66.6667 45.5,66C 41.5808,62.8397 41.5808,59.673 45.5,56.5 Z"/></g>
</svg>
