<?xml version="1.0" standalone="no"?>
<!DOCTYPE svg PUBLIC "-//W3C//DTD SVG 20010904//EN"
 "http://www.w3.org/TR/2001/REC-SVG-20010904/DTD/svg10.dtd">
<svg version="1.0" xmlns="http://www.w3.org/2000/svg"
 width="474.000000pt" height="474.000000pt" viewBox="0 0 474.000000 474.000000"
 preserveAspectRatio="xMidYMid meet">
<metadata>
Created by potrace 1.16, written by Peter Selinger 2001-2019
</metadata>
<g transform="translate(0.000000,474.000000) scale(0.100000,-0.100000)"
fill="#000000" stroke="none">
<path d="M2105 4730 c4 -6 -7 -10 -27 -10 -60 0 -329 -60 -447 -99 -380 -127
-679 -316 -961 -608 -263 -271 -435 -557 -554 -918 -38 -115 -82 -310 -92
-414 -4 -34 -11 -61 -15 -61 -5 0 -9 -112 -9 -250 0 -160 4 -250 10 -250 6 0
10 -13 10 -28 0 -44 38 -247 65 -347 206 -765 807 -1392 1565 -1633 115 -36
305 -80 389 -88 33 -4 61 -11 61 -15 0 -5 122 -9 270 -9 173 0 270 4 270 10 0
6 13 10 29 10 17 0 79 9 138 20 919 174 1645 863 1867 1772 19 79 38 171 42
206 4 34 11 62 15 62 5 0 9 131 9 290 0 160 -4 290 -8 290 -4 0 -14 39 -21 87
-17 119 -72 326 -120 457 -174 464 -506 876 -931 1155 -262 173 -680 328 -959
357 -33 4 -61 11 -61 15 0 5 -122 9 -271 9 -177 0 -268 -3 -264 -10z m515
-205 c410 -51 758 -193 1082 -442 380 -292 660 -723 777 -1198 47 -188 55
-270 55 -525 -1 -224 -3 -257 -28 -383 -85 -439 -290 -830 -599 -1138 -333
-333 -723 -532 -1207 -615 -149 -26 -501 -26 -655 0 -484 80 -903 297 -1231
638 -300 311 -492 682 -574 1103 -130 678 80 1394 556 1894 368 387 867 629
1389 674 109 10 324 5 435 -8z"/>
<path d="M1902 4054 c-16 -11 -22 -25 -22 -55 0 -47 27 -79 68 -79 38 0 62 28
62 73 0 65 -57 97 -108 61z"/>
<path d="M3180 3843 c-38 -66 -33 -83 25 -98 35 -8 39 -7 66 23 31 35 35 52
19 83 -9 16 -58 49 -74 49 -2 0 -19 -26 -36 -57z"/>
<path d="M1045 3515 c-14 -13 -25 -28 -25 -33 0 -6 23 -31 52 -56 56 -50 66
-49 94 5 16 31 11 53 -19 87 -27 30 -71 29 -102 -3z"/>
<path d="M2301 3431 c-6 -11 -11 -27 -11 -35 0 -9 -18 -25 -40 -36 l-40 -20
-30 22 -30 22 -40 -39 c-44 -43 -47 -55 -24 -93 14 -25 14 -31 -1 -64 -13 -32
-20 -38 -45 -38 -36 0 -52 -26 -49 -78 3 -48 13 -60 54 -68 24 -4 37 -14 45
-35 13 -30 11 -40 -15 -76 -15 -20 -14 -23 16 -57 47 -54 62 -59 93 -35 23 18
29 19 61 8 25 -9 37 -21 41 -39 11 -50 11 -50 78 -50 63 0 66 1 72 28 3 15 7
32 9 37 4 15 76 39 84 28 3 -6 16 -15 28 -22 19 -10 27 -7 57 20 45 39 52 63
28 96 -18 25 -18 27 0 64 14 29 25 39 42 39 35 0 47 22 44 81 -3 52 -4 54 -39
62 -28 6 -38 15 -48 43 -11 30 -10 39 3 59 9 13 16 30 16 38 0 14 -70 87 -84
87 -4 0 -19 -9 -33 -20 -24 -19 -26 -19 -61 -1 -24 12 -39 29 -46 52 -11 33
-13 34 -68 37 -48 3 -58 0 -67 -17z m127 -231 c65 -40 87 -109 56 -176 -59
-124 -254 -79 -254 58 0 66 70 138 135 138 17 0 45 -9 63 -20z"/>
<path d="M745 3017 c-33 -50 -25 -66 43 -94 71 -29 80 -26 89 31 5 30 1 41
-17 61 -32 34 -93 35 -115 2z"/>
<path d="M2927 2362 c-14 -15 -17 -41 -17 -142 l0 -123 -47 -86 c-59 -110 -79
-147 -138 -255 -43 -80 -47 -92 -39 -124 6 -24 20 -44 43 -59 34 -23 38 -23
336 -23 l303 0 31 29 c26 24 31 37 31 73 0 24 -4 48 -9 54 -5 5 -54 93 -110
196 l-101 188 0 128 c0 166 4 162 -152 162 -99 0 -117 -3 -131 -18z m73 -572
c89 -36 134 -37 201 -9 l50 22 23 -22 c35 -33 62 -99 49 -119 -9 -15 -40 -17
-258 -20 -258 -2 -275 0 -275 40 0 17 37 92 63 126 15 20 67 13 147 -18z"/>
<path d="M1452 2270 c-68 -42 -92 -132 -52 -197 21 -35 56 -44 67 -17 3 8 -2
32 -11 52 -38 83 39 143 122 95 36 -20 65 -11 60 19 -4 29 -72 68 -118 68 -19
0 -50 -9 -68 -20z"/>
<path d="M1543 2118 c-5 -7 -24 -49 -42 -93 -19 -44 -39 -93 -46 -110 -35 -84
-40 -106 -25 -115 8 -6 63 -10 123 -10 l107 0 0 -95 c0 -93 -1 -96 -26 -105
-16 -7 -24 -16 -22 -28 3 -15 18 -17 111 -20 l107 -3 0 24 c0 16 -7 26 -19 30
-16 4 -19 16 -20 101 l-2 96 85 0 c93 0 104 6 125 62 7 18 17 42 22 53 49 114
76 191 72 206 -5 18 -20 19 -273 19 -202 0 -270 -3 -277 -12z"/>
<path d="M1310 1109 c-62 -24 -80 -102 -34 -138 15 -12 34 -21 44 -21 21 0 66
34 81 61 16 32 1 77 -31 94 -16 8 -30 15 -32 14 -2 0 -14 -5 -28 -10z"/>
<path d="M1654 899 c-29 -10 -64 -57 -64 -84 0 -12 9 -34 21 -49 40 -51 117
-25 135 47 13 55 -41 105 -92 86z"/>
</g>
</svg>
