<?xml version="1.0" encoding="UTF-8"?>
<!DOCTYPE svg PUBLIC "-//W3C//DTD SVG 1.1//EN" "http://www.w3.org/Graphics/SVG/1.1/DTD/svg11.dtd">
<svg xmlns="http://www.w3.org/2000/svg" version="1.1" width="200px" height="200px" style="shape-rendering:geometricPrecision; text-rendering:geometricPrecision; image-rendering:optimizeQuality; fill-rule:evenodd; clip-rule:evenodd" xmlns:xlink="http://www.w3.org/1999/xlink">
<g><path style="opacity:1" fill="#026754" d="M -0.5,-0.5 C 66.1667,-0.5 132.833,-0.5 199.5,-0.5C 199.5,66.1667 199.5,132.833 199.5,199.5C 132.833,199.5 66.1667,199.5 -0.5,199.5C -0.5,132.833 -0.5,66.1667 -0.5,-0.5 Z"/></g>
<g><path style="opacity:1" fill="#f2f7f7" d="M 51.5,42.5 C 47.4862,42.6655 43.4862,42.4988 39.5,42C 38.193,40.0565 38.193,38.2232 39.5,36.5C 42.7431,37.58 46.0764,37.7466 49.5,37C 52.1667,35.3333 52.1667,33.6667 49.5,32C 39.2195,30.5808 35.7195,25.0808 39,15.5C 40.4194,14.5399 41.9194,13.7065 43.5,13C 47.8206,12.501 52.1539,12.3343 56.5,12.5C 56.5,14.5 56.5,16.5 56.5,18.5C 53.1501,18.335 49.8168,18.5017 46.5,19C 45.1667,20.3333 45.1667,21.6667 46.5,23C 51.201,24.2271 55.3677,26.3938 59,29.5C 60.8729,36.4426 58.3729,40.7759 51.5,42.5 Z"/></g>
<g><path style="opacity:1" fill="#f0f6f6" d="M 97.5,31.5 C 96.4324,30.5655 95.099,30.2322 93.5,30.5C 93.5,29.5 93.5,28.5 93.5,27.5C 96.6843,25.5864 100.351,24.9197 104.5,25.5C 104.5,30.8333 104.5,36.1667 104.5,41.5C 103.209,41.2627 102.209,41.596 101.5,42.5C 83.2362,46.0691 75.7362,38.7357 79,20.5C 80.8917,16.9421 83.7251,14.4421 87.5,13C 92.8229,12.5006 98.1563,12.334 103.5,12.5C 103.5,14.5 103.5,16.5 103.5,18.5C 89.4495,15.712 84.2828,21.0454 88,34.5C 90.5463,37.1856 93.713,38.1856 97.5,37.5C 97.5,35.5 97.5,33.5 97.5,31.5 Z"/></g>
<g><path style="opacity:1" fill="#f8fbfa" d="M 119.5,36.5 C 122.833,36.5 126.167,36.5 129.5,36.5C 129.5,38.5 129.5,40.5 129.5,42.5C 123.5,42.5 117.5,42.5 111.5,42.5C 111.5,32.8333 111.5,23.1667 111.5,13.5C 113.833,13.5 116.167,13.5 118.5,13.5C 118.175,21.3516 118.508,29.0182 119.5,36.5 Z"/></g>
<g><path style="opacity:1" fill="#f1f7f6" d="M 133.5,35.5 C 132.705,31.2147 132.372,26.8814 132.5,22.5C 136.363,12.9316 143.363,9.76498 153.5,13C 156.667,14.8333 159.167,17.3333 161,20.5C 163.779,39.8334 155.946,46.6668 137.5,41C 135.561,39.5679 134.228,37.7346 133.5,35.5 Z"/></g>
<g><path style="opacity:1" fill="#8db7b1" d="M 72.5,42.5 C 70.0521,43.4731 67.3854,43.8064 64.5,43.5C 64.5,33.1667 64.5,22.8333 64.5,12.5C 67.5,12.5 70.5,12.5 73.5,12.5C 73.8274,22.6806 73.494,32.6806 72.5,42.5 Z"/></g>
<g><path style="opacity:1" fill="#fcfdfd" d="M 72.5,42.5 C 70.1667,42.5 67.8333,42.5 65.5,42.5C 65.5,32.8333 65.5,23.1667 65.5,13.5C 67.8333,13.5 70.1667,13.5 72.5,13.5C 72.5,23.1667 72.5,32.8333 72.5,42.5 Z"/></g>
<g><path style="opacity:1" fill="#92b8b4" d="M 119.5,36.5 C 118.508,29.0182 118.175,21.3516 118.5,13.5C 116.167,13.5 113.833,13.5 111.5,13.5C 111.5,23.1667 111.5,32.8333 111.5,42.5C 110.506,32.6806 110.173,22.6806 110.5,12.5C 113.5,12.5 116.5,12.5 119.5,12.5C 119.5,20.5 119.5,28.5 119.5,36.5 Z"/></g>
<g><path style="opacity:1" fill="#126a58" d="M 143.5,18.5 C 147.684,17.7036 150.85,19.037 153,22.5C 154.472,28.0755 153.305,32.9089 149.5,37C 145.695,38.1734 142.861,37.0067 141,33.5C 140.333,29.5 140.333,25.5 141,21.5C 142.045,20.6266 142.878,19.6266 143.5,18.5 Z"/></g>
<g><path style="opacity:1" fill="#86b1aa" d="M 132.5,22.5 C 132.372,26.8814 132.705,31.2147 133.5,35.5C 131.967,33.3655 131.3,30.8655 131.5,28C 131.506,25.9674 131.839,24.134 132.5,22.5 Z"/></g>
<g><path style="opacity:1" fill="#7ea7a1" d="M 93.5,27.5 C 93.5,28.5 93.5,29.5 93.5,30.5C 95.099,30.2322 96.4324,30.5655 97.5,31.5C 95.8333,31.5 94.1667,31.5 92.5,31.5C 92.2322,29.901 92.5655,28.5676 93.5,27.5 Z"/></g>
<g><path style="opacity:1" fill="#a0c4be" d="M 104.5,25.5 C 105.489,30.9753 105.822,36.642 105.5,42.5C 104.167,42.5 102.833,42.5 101.5,42.5C 102.209,41.596 103.209,41.2627 104.5,41.5C 104.5,36.1667 104.5,30.8333 104.5,25.5 Z"/></g>
<g><path style="opacity:1" fill="#a4c5c0" d="M 39.5,36.5 C 38.193,38.2232 38.193,40.0565 39.5,42C 43.4862,42.4988 47.4862,42.6655 51.5,42.5C 47.3537,43.647 43.0204,43.8136 38.5,43C 37.2234,40.5341 37.2234,38.0341 38.5,35.5C 39.1067,35.6236 39.44,35.9569 39.5,36.5 Z"/></g>
<g><path style="opacity:1" fill="#7baca5" d="M 37.5,62.5 C 74.9963,61.5015 112.663,61.1682 150.5,61.5C 150.768,63.099 150.434,64.4324 149.5,65.5C 149.5,64.5 149.5,63.5 149.5,62.5C 112.5,62.5 75.5,62.5 38.5,62.5C 38.1667,62.5 37.8333,62.5 37.5,62.5 Z"/></g>
<g><path style="opacity:1" fill="#fafcfc" d="M 156.5,62.5 C 157.833,62.5 159.167,62.5 160.5,62.5C 160.5,103.167 160.5,143.833 160.5,184.5C 151.5,184.5 142.5,184.5 133.5,184.5C 133.5,181.833 133.5,179.167 133.5,176.5C 135.628,165.86 137.628,155.193 139.5,144.5C 140.924,142.485 141.59,140.152 141.5,137.5C 145.392,115.818 149.392,94.1509 153.5,72.5C 154.924,70.4855 155.59,68.1522 155.5,65.5C 155.263,64.209 155.596,63.209 156.5,62.5 Z"/></g>
<g><path style="opacity:1" fill="#fcfdfd" d="M 38.5,62.5 C 75.5,62.5 112.5,62.5 149.5,62.5C 149.5,63.5 149.5,64.5 149.5,65.5C 146.5,81.5026 143.5,97.5026 140.5,113.5C 131.39,113.021 122.89,115.021 115,119.5C 113.255,124.386 112.588,129.386 113,134.5C 116.589,132.47 120.422,131.137 124.5,130.5C 121.811,148.595 118.478,166.595 114.5,184.5C 89.1667,184.5 63.8333,184.5 38.5,184.5C 38.5,143.833 38.5,103.167 38.5,62.5 Z"/></g>
<g><path style="opacity:1" fill="#99c1bb" d="M 37.5,62.5 C 37.8333,62.5 38.1667,62.5 38.5,62.5C 38.5,103.167 38.5,143.833 38.5,184.5C 63.8333,184.5 89.1667,184.5 114.5,184.5C 89.0054,185.498 63.3388,185.831 37.5,185.5C 37.5,144.5 37.5,103.5 37.5,62.5 Z"/></g>
<g><path style="opacity:1" fill="#97c0ba" d="M 156.5,62.5 C 157.919,61.5489 159.585,61.2155 161.5,61.5C 161.5,102.833 161.5,144.167 161.5,185.5C 151.5,185.5 141.5,185.5 131.5,185.5C 131.676,182.273 132.343,179.273 133.5,176.5C 133.5,179.167 133.5,181.833 133.5,184.5C 142.5,184.5 151.5,184.5 160.5,184.5C 160.5,143.833 160.5,103.167 160.5,62.5C 159.167,62.5 157.833,62.5 156.5,62.5 Z"/></g>
<g><path style="opacity:1" fill="#60988d" d="M 155.5,65.5 C 155.59,68.1522 154.924,70.4855 153.5,72.5C 153.41,69.8478 154.076,67.5145 155.5,65.5 Z"/></g>
<g><path style="opacity:1" fill="#086755" d="M 76.5,143.5 C 75.7109,143.783 75.0442,144.283 74.5,145C 83.8274,145.5 93.1607,145.666 102.5,145.5C 101.589,150.453 100.922,155.453 100.5,160.5C 84.5,160.5 68.5,160.5 52.5,160.5C 53.8432,154.127 55.3432,147.794 57,141.5C 64.8333,135.667 72.6667,129.833 80.5,124C 86.1858,119.792 89.0192,114.292 89,107.5C 87.9243,104.921 86.091,103.254 83.5,102.5C 77.6012,100.886 71.9345,101.552 66.5,104.5C 65.5041,104.414 64.6708,104.748 64,105.5C 64.3283,100.518 64.995,95.5178 66,90.5C 68.2658,89.0437 70.7658,88.2104 73.5,88C 83.1289,86.6623 92.4623,87.6623 101.5,91C 104.384,92.884 106.551,95.384 108,98.5C 109.378,105.939 108.378,112.939 105,119.5C 96.8488,129.155 87.3488,137.155 76.5,143.5 Z"/></g>
<g><path style="opacity:1" fill="#c4ddda" d="M 83.5,102.5 C 77.7119,102.312 72.0452,102.978 66.5,104.5C 71.9345,101.552 77.6012,100.886 83.5,102.5 Z"/></g>
<g><path style="opacity:1" fill="#7fb0a6" d="M 141.5,137.5 C 141.59,140.152 140.924,142.485 139.5,144.5C 139.41,141.848 140.076,139.515 141.5,137.5 Z"/></g>
<g><path style="opacity:1" fill="#a6cec7" d="M 76.5,143.5 C 85.1667,144.167 93.8333,144.833 102.5,145.5C 93.1607,145.666 83.8274,145.5 74.5,145C 75.0442,144.283 75.7109,143.783 76.5,143.5 Z"/></g>
</svg>
